# xmcd CD database file
# Copyright (C) 1993-1998 Ti Kan
#
# Track frame offsets:
# 182
# 11622
# 21935
# 33857
# 43952
# 54922
# 65140
# 76497
# 92057
# 101735
# 112370
# 123167
# 136687
# 147452
# 158630
#
# Disc length: 2288 seconds
#
# Revision: 1
# Processed by: cddbd v1.4b41PL1 Copyright (c) Steve Scherf et al.
# Submitted via: inCDius 1.1b8
#
DISCID=cd08ee0f
DTITLE=John Lee Hooker - The Early Years - Disc 2 of 2
DYEAR=1900
DGENRE=
TTITLE0=Boom Boom
TTITLE1=Old Time Shimmy
TTITLE2=I Want To Hug You
TTITLE3=I'm Leavin'
TTITLE4=Good Rockin' Mama
TTITLE5=Dusty Road
TTITLE6=Hard Hearted Woman
TTITLE7=Thelma
TTITLE8=Onions
TTITLE9=Keep Your Hands To Yourself
TTITLE10=I Want To Shout
TTITLE11=Time Is Marching On
TTITLE12=Send Me The Pillow
TTITLE13=I Want To Ramble
TTITLE14=I'm Going Upstairs
EXTD=
EXTT0=
EXTT1=
EXTT2=
EXTT3=
EXTT4=
EXTT5=
EXTT6=
EXTT7=
EXTT8=
EXTT9=
EXTT10=
EXTT11=
EXTT12=
EXTT13=
EXTT14=
PLAYORDER=
